<svg width="18" height="9" viewBox="0 0 18 9" fill="none" xmlns="http://www.w3.org/2000/svg">
<path d="M2.07254 0.394206C1.99299 0.319024 1.8994 0.26025 1.79712 0.221237C1.69485 0.182224 1.58589 0.163736 1.47647 0.166832C1.36706 0.169928 1.25932 0.194544 1.15941 0.239276C1.05951 0.284009 0.969393 0.34798 0.894211 0.42754C0.81903 0.507099 0.760255 0.600688 0.721242 0.702962C0.682229 0.805236 0.663742 0.914191 0.666837 1.02361C0.669933 1.13303 0.694549 1.24077 0.739281 1.34067C0.784014 1.44058 0.847986 1.53069 0.927545 1.60587L8.42754 8.68921C8.58227 8.83549 8.78712 8.91699 9.00004 8.91699C9.21297 8.91699 9.41782 8.83549 9.57255 8.68921L17.0734 1.60587C17.1547 1.53119 17.2203 1.44109 17.2665 1.34082C17.3127 1.24055 17.3385 1.1321 17.3424 1.02177C17.3463 0.91144 17.3283 0.801432 17.2894 0.698134C17.2504 0.594837 17.1913 0.500309 17.1155 0.420042C17.0397 0.339775 16.9487 0.275368 16.8478 0.230563C16.7469 0.185758 16.6381 0.161448 16.5278 0.159043C16.4174 0.15664 16.3076 0.17619 16.2049 0.21656C16.1021 0.25693 16.0084 0.317315 15.9292 0.394206L9.00004 6.93754L2.07254 0.394206Z" fill="#F6F3EC"/>
</svg>
