<svg width="13" height="14" viewBox="0 0 13 14" fill="none" xmlns="http://www.w3.org/2000/svg">
<path d="M5.99689 11.462L10.7906 7.30235C10.834 7.26475 10.8688 7.21827 10.8927 7.16605C10.9165 7.11383 10.9288 7.05709 10.9288 6.99969C10.9288 6.94228 10.9165 6.88555 10.8927 6.83333C10.8688 6.78111 10.834 6.73462 10.7906 6.69702L5.99689 2.53867C5.98244 2.52611 5.96468 2.51796 5.94573 2.5152C5.92679 2.51244 5.90744 2.51519 5.89001 2.52311C5.87258 2.53104 5.85779 2.5438 5.84741 2.5599C5.83703 2.57599 5.83149 2.59472 5.83146 2.61387V3.62902C5.83146 3.68667 5.85652 3.74181 5.90039 3.78066L9.06239 6.52407L2.00523 6.52407C1.95008 6.52407 1.90497 6.56919 1.90497 6.62433V7.37629C1.90497 7.43144 1.95008 7.47655 2.00523 7.47655L9.06239 7.47655L5.90039 10.22C5.85652 10.2576 5.83146 10.3127 5.83146 10.3716L5.83146 11.3868C5.83146 11.472 5.93172 11.5183 5.99689 11.462Z" fill="#F45B0F"/>
</svg>
