<svg width="66" height="33" viewBox="0 0 66 33" fill="none" xmlns="http://www.w3.org/2000/svg">
<path d="M1 16.7207L64.5847 16.7207" stroke="#F45B0F" stroke-width="2" stroke-linecap="round"/>
<path d="M65 16.627C59.2497 13.3582 53.4066 10.2553 47.6535 6.99875C44.6876 5.31997 42.0236 3.33387 39.2799 1.34037C37.6381 0.14747 39.278 2.4489 39.4616 2.75945C41.4605 6.14208 43.7174 9.01256 46.2548 11.9925C47.6097 13.5836 48.6037 15.3852 49.9603 16.9503" stroke="#F45B0F" stroke-width="2" stroke-linecap="round"/>
<path d="M65 15.6567C60.7421 18.113 56.583 20.6411 52.4306 23.2731C49.2079 25.3158 45.9357 27.1192 42.4404 28.662C40.3444 29.5873 38.1692 30.4261 36.3011 31.7697C35.4066 32.413 36.2105 31.5374 36.5009 31.2128C38.4136 29.0745 40.3663 26.9686 42.1135 24.6922C44.2737 21.8776 46.2146 19.2286 48.9794 16.9501" stroke="#F45B0F" stroke-width="2" stroke-linecap="round"/>
</svg>
