<svg width="19" height="19" viewBox="0 0 19 19" fill="none" xmlns="http://www.w3.org/2000/svg">
<path d="M8.91116 15.5188L15.6348 9.68458C15.6956 9.63184 15.7444 9.56664 15.7779 9.4934C15.8113 9.42016 15.8286 9.34058 15.8286 9.26007C15.8286 9.17955 15.8113 9.09998 15.7779 9.02673C15.7444 8.95349 15.6956 8.88829 15.6348 8.83556L8.91116 3.00313C8.89089 2.98551 8.86599 2.97408 8.83941 2.97021C8.81283 2.96634 8.7857 2.97019 8.76125 2.98131C8.7368 2.99242 8.71606 3.01033 8.7015 3.0329C8.68694 3.05547 8.67917 3.08174 8.67913 3.1086V4.53243C8.67913 4.61329 8.71428 4.69063 8.77581 4.74513L13.2108 8.59298H3.31252C3.23518 8.59298 3.1719 8.65626 3.1719 8.7336V9.78829C3.1719 9.86563 3.23518 9.92891 3.31252 9.92891H13.2108L8.77581 13.7768C8.71428 13.8295 8.67913 13.9068 8.67913 13.9895V15.4133C8.67913 15.5328 8.81975 15.5979 8.91116 15.5188Z" fill="#0C0C0C"/>
</svg>
