<svg width="66" height="33" viewBox="0 0 66 33" fill="none" xmlns="http://www.w3.org/2000/svg">
<path d="M65 16.7207L1.41527 16.7207" stroke="#7A7A7A" stroke-width="2" stroke-linecap="round"/>
<path d="M1.00008 16.627C6.75037 13.3582 12.5934 10.2553 18.3466 6.99875C21.3124 5.31997 23.9764 3.33387 26.7201 1.34037C28.3619 0.14747 26.722 2.4489 26.5385 2.75945C24.5395 6.14208 22.2827 9.01256 19.7452 11.9925C18.3903 13.5836 17.3963 15.3852 16.0398 16.9503" stroke="#7A7A7A" stroke-width="2" stroke-linecap="round"/>
<path d="M1.00003 15.6567C5.25787 18.113 9.41696 20.6411 13.5694 23.2731C16.7921 25.3158 20.0643 27.1192 23.5596 28.662C25.6556 29.5873 27.8308 30.4261 29.6989 31.7697C30.5934 32.413 29.7895 31.5374 29.4991 31.2128C27.5864 29.0745 25.6337 26.9686 23.8865 24.6922C21.7263 21.8776 19.7854 19.2286 17.0206 16.9501" stroke="#7A7A7A" stroke-width="2" stroke-linecap="round"/>
</svg>
