<svg width="14" height="8" viewBox="0 0 14 8" fill="none" xmlns="http://www.w3.org/2000/svg">
<path d="M12.5419 7.48424C12.6056 7.54439 12.6804 7.59141 12.7623 7.62262C12.8441 7.65383 12.9312 7.66862 13.0188 7.66614C13.1063 7.66367 13.1925 7.64397 13.2724 7.60819C13.3523 7.5724 13.4244 7.52122 13.4846 7.45758C13.5447 7.39393 13.5917 7.31906 13.623 7.23724C13.6542 7.15542 13.669 7.06826 13.6665 6.98072C13.664 6.89319 13.6443 6.807 13.6085 6.72707C13.5727 6.64715 13.5216 6.57506 13.4579 6.51491L7.45792 0.848244C7.33414 0.73122 7.17026 0.666016 6.99992 0.666016C6.82957 0.666016 6.66569 0.73122 6.54191 0.848244L0.541248 6.51491C0.476207 6.57466 0.423686 6.64674 0.386736 6.72695C0.349787 6.80717 0.329144 6.89393 0.326009 6.98219C0.322873 7.07046 0.337306 7.15846 0.36847 7.2411C0.399633 7.32374 0.446906 7.39936 0.507543 7.46358C0.568179 7.52779 0.64097 7.57931 0.721688 7.61516C0.802406 7.651 0.889441 7.67045 0.977739 7.67237C1.06604 7.6743 1.15384 7.65866 1.23604 7.62636C1.31824 7.59406 1.39321 7.54576 1.45658 7.48424L6.99992 2.24958L12.5419 7.48424Z" fill="#F45B0F"/>
</svg>
