<svg width="66" height="33" viewBox="0 0 66 33" fill="none" xmlns="http://www.w3.org/2000/svg">
<path d="M65 16.7207L1.41527 16.7207" stroke="#F45B0F" stroke-width="2" stroke-linecap="round"/>
<path d="M1.00002 16.627C6.75031 13.3582 12.5934 10.2553 18.3465 6.99875C21.3123 5.31997 23.9764 3.33387 26.7201 1.34037C28.3619 0.14747 26.7219 2.4489 26.5384 2.75945C24.5395 6.14208 22.2826 9.01256 19.7451 11.9925C18.3902 13.5836 17.3963 15.3852 16.0397 16.9503" stroke="#F45B0F" stroke-width="2" stroke-linecap="round"/>
<path d="M1.00015 15.6567C5.25799 18.113 9.41708 20.6411 13.5695 23.2731C16.7923 25.3158 20.0645 27.1192 23.5597 28.662C25.6558 29.5873 27.831 30.4261 29.6991 31.7697C30.5935 32.413 29.7896 31.5374 29.4993 31.2128C27.5866 29.0745 25.6338 26.9686 23.8866 24.6922C21.7264 21.8776 19.7855 19.2286 17.0207 16.9501" stroke="#F45B0F" stroke-width="2" stroke-linecap="round"/>
</svg>
