<svg width="66" height="33" viewBox="0 0 66 33" fill="none" xmlns="http://www.w3.org/2000/svg">
<path d="M1 16.7207L64.5847 16.7207" stroke="#7A7A7A" stroke-width="2" stroke-linecap="round"/>
<path d="M65 16.627C59.2497 13.3582 53.4066 10.2553 47.6535 6.99875C44.6877 5.31997 42.0236 3.33387 39.2799 1.34037C37.6381 0.14747 39.2781 2.4489 39.4616 2.75945C41.4605 6.14208 43.7174 9.01256 46.2549 11.9925C47.6098 13.5836 48.6037 15.3852 49.9603 16.9503" stroke="#7A7A7A" stroke-width="2" stroke-linecap="round"/>
<path d="M64.9998 15.6567C60.742 18.113 56.5829 20.6411 52.4305 23.2731C49.2077 25.3158 45.9355 27.1192 42.4403 28.662C40.3442 29.5873 38.169 30.4261 36.3009 31.7697C35.4065 32.413 36.2104 31.5374 36.5007 31.2128C38.4134 29.0745 40.3662 26.9686 42.1134 24.6922C44.2736 21.8776 46.2145 19.2286 48.9793 16.9501" stroke="#7A7A7A" stroke-width="2" stroke-linecap="round"/>
</svg>
