<svg width="18" height="18" viewBox="0 0 18 18" fill="none" xmlns="http://www.w3.org/2000/svg">
<path d="M8.41116 15.258L15.1348 9.42384C15.1956 9.3711 15.2444 9.3059 15.2779 9.23266C15.3113 9.15942 15.3286 9.07984 15.3286 8.99932C15.3286 8.91881 15.3113 8.83923 15.2779 8.76599C15.2444 8.69275 15.1956 8.62755 15.1348 8.57481L8.41116 2.74239C8.39089 2.72477 8.36599 2.71334 8.33941 2.70947C8.31283 2.7056 8.2857 2.70945 8.26125 2.72057C8.2368 2.73168 8.21606 2.74959 8.2015 2.77216C8.18694 2.79472 8.17917 2.821 8.17913 2.84786V4.27169C8.17913 4.35255 8.21428 4.42989 8.27581 4.48438L12.7108 8.33223H2.81252C2.73518 8.33223 2.6719 8.39552 2.6719 8.47286V9.52755C2.6719 9.60489 2.73518 9.66817 2.81252 9.66817H12.7108L8.27581 13.516C8.21428 13.5688 8.17913 13.6461 8.17913 13.7287V15.1525C8.17913 15.2721 8.31975 15.3371 8.41116 15.258Z" fill="white"/>
</svg>
