<svg width="19" height="19" viewBox="0 0 19 19" fill="none" xmlns="http://www.w3.org/2000/svg">
<path d="M8.91116 15.5197L15.6348 9.68555C15.6956 9.63282 15.7444 9.56762 15.7779 9.49438C15.8113 9.42113 15.8286 9.34156 15.8286 9.26104C15.8286 9.18053 15.8113 9.10095 15.7779 9.02771C15.7444 8.95447 15.6956 8.88927 15.6348 8.83653L8.91116 3.00411C8.89089 2.98649 8.86599 2.97506 8.83941 2.97119C8.81283 2.96732 8.7857 2.97117 8.76125 2.98228C8.7368 2.9934 8.71606 3.01131 8.7015 3.03387C8.68694 3.05644 8.67917 3.08272 8.67913 3.10958V4.53341C8.67913 4.61427 8.71428 4.69161 8.77581 4.7461L13.2108 8.59395H3.31252C3.23518 8.59395 3.1719 8.65724 3.1719 8.73458V9.78927C3.1719 9.86661 3.23518 9.92989 3.31252 9.92989H13.2108L8.77581 13.7777C8.71428 13.8305 8.67913 13.9078 8.67913 13.9904V15.4143C8.67913 15.5338 8.81975 15.5988 8.91116 15.5197Z" fill="#F45B0F"/>
</svg>
