<svg width="29" height="29" viewBox="0 0 29 29" fill="none" xmlns="http://www.w3.org/2000/svg">
<g clip-path="url(#clip0_187_2984)">
<path fill-rule="evenodd" clip-rule="evenodd" d="M7.57728 0.335901C7.97502 0.229585 8.39869 0.285492 8.75524 0.491341C9.11179 0.697191 9.37205 1.03615 9.47885 1.43376L10.4089 4.89926C10.4618 5.09647 10.4754 5.30218 10.4488 5.50463C10.4222 5.70709 10.356 5.90232 10.2539 6.07919C10.0479 6.43638 9.70832 6.69708 9.31003 6.80394C8.91173 6.91079 8.4873 6.85504 8.1301 6.64896C7.7729 6.44288 7.5122 6.10334 7.40535 5.70504L6.48149 2.23747C6.42854 2.04039 6.41493 1.83481 6.44145 1.63247C6.46797 1.43012 6.5341 1.23499 6.63605 1.05821C6.738 0.881431 6.87378 0.72647 7.03563 0.602178C7.19749 0.477886 7.38224 0.3867 7.57935 0.333829L7.57728 0.335901ZM0.149133 7.77854C0.0428171 8.17628 0.0987242 8.59996 0.304574 8.95651C0.510423 9.31305 0.849381 9.57331 1.24699 9.68011L4.71249 10.6081C4.91196 10.6691 5.12168 10.6893 5.32913 10.6675C5.53658 10.6457 5.73751 10.5824 5.91996 10.4813C6.1024 10.3802 6.26261 10.2433 6.39104 10.079C6.51946 9.9146 6.61347 9.72605 6.66746 9.52457C6.72145 9.32308 6.73431 9.11279 6.70528 8.90623C6.67625 8.69967 6.60591 8.50107 6.49848 8.32227C6.39104 8.14348 6.24869 7.98815 6.07993 7.86555C5.91117 7.74295 5.71945 7.6556 5.5162 7.60869L2.0507 6.67861C1.65296 6.5723 1.22929 6.62821 0.872742 6.83405C0.516195 7.0399 0.255935 7.37886 0.149133 7.77647V7.77854ZM9.26342 11.8489C9.14193 11.4841 9.12436 11.0928 9.21267 10.7186C9.30097 10.3444 9.49167 10.0022 9.76341 9.73021C10.0352 9.45825 10.3772 9.26728 10.7513 9.17868C11.1255 9.09008 11.5168 9.10735 11.8817 9.22854L26.6303 14.1482C28.536 14.7841 28.5111 17.4873 26.593 18.088L22.3963 19.4075L27.9891 25.0004C28.3775 25.3891 28.5956 25.9161 28.5954 26.4656C28.5953 27.0151 28.3768 27.542 27.9881 27.9304C27.5994 28.3188 27.0724 28.5369 26.5229 28.5367C25.9734 28.5366 25.4465 28.3181 25.0581 27.9294L19.4528 22.322L18.1229 26.5602C17.5222 28.4763 14.8169 28.5011 14.181 26.5954L9.26135 11.8468L9.26342 11.8489ZM4.27956 18.1357C4.13632 18.2841 3.96495 18.4026 3.77544 18.4841C3.58594 18.5656 3.3821 18.6085 3.17582 18.6104C2.96954 18.6123 2.76495 18.5731 2.57399 18.4951C2.38302 18.4171 2.20951 18.3018 2.06357 18.156C1.91763 18.0102 1.8022 17.8368 1.72399 17.6459C1.64579 17.455 1.60638 17.2504 1.60808 17.0442C1.60977 16.8379 1.65253 16.634 1.73386 16.4444C1.81519 16.2548 1.93346 16.0834 2.08178 15.94L4.62135 13.4025C4.91585 13.128 5.30538 12.9787 5.70786 12.9858C6.11034 12.9929 6.49435 13.1559 6.77899 13.4405C7.06363 13.7252 7.22668 14.1092 7.23378 14.5117C7.24088 14.9142 7.09148 15.3037 6.81706 15.5982L4.27956 18.1357ZM17.661 4.4829C17.9441 4.19003 18.1009 3.79766 18.0976 3.39032C18.0942 2.98298 17.931 2.59324 17.6431 2.30506C17.3552 2.01688 16.9656 1.85331 16.5583 1.84958C16.1509 1.84585 15.7584 2.00225 15.4653 2.28512L12.9257 4.82261C12.6428 5.11575 12.4864 5.50826 12.4902 5.91561C12.4939 6.32295 12.6575 6.71253 12.9456 7.00044C13.2338 7.28835 13.6236 7.45155 14.0309 7.4549C14.4383 7.45824 14.8306 7.30147 15.1235 7.01833L17.661 4.4829Z" fill="#F45B0F"/>
</g>
<defs>
<clipPath id="clip0_187_2984">
<rect width="29" height="29" fill="white"/>
</clipPath>
</defs>
</svg>
