<svg width="42" height="65" viewBox="0 0 42 65" fill="none" xmlns="http://www.w3.org/2000/svg">
<path d="M25.555 22.5278C21.241 29.9998 17.3232 38.9349 11.3834 45.237C10.215 46.4766 8.77526 47.7472 7.46209 48.8453C6.2466 49.8616 10.0016 39.6883 10.1647 39.2663C14.8548 27.1334 21.6251 14.799 32.0246 6.54671C32.6078 6.08389 40.2366 0.547852 40.6607 1.56788C41.4961 3.57699 40.4156 7.70138 40.0725 9.6273C39.5009 12.8359 38.5827 15.9096 37.4137 18.9468C34.1761 27.3581 29.1096 34.8203 24.771 42.6812C22.0873 47.5438 19.6348 52.4884 15.8859 56.6626C13.5027 59.3162 8.57764 63.6521 4.73888 63.7863C1.94576 63.884 0.289599 48.1806 1.56135 45.4741C5.71646 36.6314 10.1983 28.1879 15.1015 19.6954" stroke="white" stroke-width="2" stroke-linecap="round"/>
</svg>
