<svg width="41" height="66" viewBox="0 0 41 66" fill="none" xmlns="http://www.w3.org/2000/svg">
<path d="M12.9523 25.3726C17.2663 32.8446 23.0454 40.705 25.5333 49.0002C26.0227 50.6318 26.4032 52.514 26.6975 54.2002C26.97 55.761 20.0371 47.4224 19.7532 47.0702C11.5908 36.942 4.29412 24.9116 2.34711 11.7792C2.23792 11.0427 1.25796 1.66794 2.35339 1.81066C4.51101 2.09177 7.54263 5.08965 9.03897 6.34974C11.5319 8.44907 13.7347 10.7811 15.7805 13.3122C21.4461 20.3216 25.3753 28.4404 30.0137 36.1282C32.883 40.8837 35.9388 45.4799 37.6794 50.8137C38.7859 54.2044 40.0784 60.6375 38.2752 64.0291C36.9632 66.4968 22.5356 60.0794 20.8276 57.6248C15.2471 49.605 10.1758 41.5019 5.27269 33.0094" stroke="#F45B0F" stroke-width="2" stroke-linecap="round"/>
</svg>
