<svg width="12" height="12" viewBox="0 0 12 12" fill="none" xmlns="http://www.w3.org/2000/svg">
<path d="M7.32582 5.99992L11.0368 2.28898C11.2129 2.11317 11.3119 1.8746 11.3122 1.62575C11.3124 1.37689 11.2137 1.13815 11.0379 0.962027C10.8621 0.785906 10.6235 0.68684 10.3747 0.68662C10.1258 0.6864 9.8871 0.785045 9.71098 0.960855L6.00004 4.67179L2.2891 0.960855C2.11298 0.784735 1.87411 0.685791 1.62504 0.685791C1.37597 0.685791 1.1371 0.784735 0.960977 0.960855C0.784857 1.13698 0.685913 1.37585 0.685913 1.62492C0.685913 1.87399 0.784857 2.11286 0.960977 2.28898L4.67191 5.99992L0.960977 9.71085C0.784857 9.88698 0.685913 10.1258 0.685913 10.3749C0.685913 10.624 0.784857 10.8629 0.960977 11.039C1.1371 11.2151 1.37597 11.314 1.62504 11.314C1.87411 11.314 2.11298 11.2151 2.2891 11.039L6.00004 7.32804L9.71098 11.039C9.8871 11.2151 10.126 11.314 10.375 11.314C10.6241 11.314 10.863 11.2151 11.0391 11.039C11.2152 10.8629 11.3142 10.624 11.3142 10.3749C11.3142 10.1258 11.2152 9.88698 11.0391 9.71085L7.32582 5.99992Z" fill="#313131"/>
</svg>
