<svg width="34" height="28" viewBox="0 0 34 28" fill="none" xmlns="http://www.w3.org/2000/svg">
<path d="M1.10132 2.90186V21.9267" stroke="white" stroke-width="2" stroke-linecap="round"/>
<path d="M6.06805 3.62695C5.38244 9.92983 3.93945 16.2933 3.93945 22.6518" stroke="white" stroke-width="2" stroke-linecap="round"/>
<path d="M1.10132 22.2896C4.05054 22.3837 7.35151 22.3713 10.1774 23.3666C10.7383 23.5642 11.1248 23.9788 11.1727 24.6047C11.2855 26.0791 9.22352 26.452 8.19663 26.4368C5.72624 26.4002 2.01768 25.6412 1.10132 22.8331" stroke="white" stroke-width="2" stroke-linecap="round"/>
<path d="M1.1013 23.0137C1.1013 24.1095 0.655752 26.334 1.63345 26.9998" stroke="white" stroke-width="2" stroke-linecap="round"/>
<path d="M12.4691 1C13.4888 1.91135 14.594 2.67542 15.5292 3.68913C16.5326 4.77684 17.429 5.9687 18.4533 7.03317C19.6404 8.26692 20.7563 9.79777 22.0865 10.8634C23.4714 11.973 24.8577 12.94 26.1083 14.2174" stroke="white" stroke-width="2" stroke-linecap="round"/>
<path d="M10.3707 4.39355C13.8922 6.92921 16.3477 10.4168 19.3178 13.5425C20.4468 14.7307 21.552 15.9448 22.6693 17.1446C23.1172 17.6256 23.3354 18.1468 24.0099 18.1468" stroke="white" stroke-width="2" stroke-linecap="round"/>
<path d="M23.9858 17.3992C24.8722 16.711 25.7835 15.4177 26.775 15.0778C28.1159 14.6181 29.6685 14.81 31.0371 14.8369C31.9011 14.8539 32.4332 15.3081 32.8391 16.4137C33.0896 17.0961 33.0355 18.0747 32.7608 18.7352C32.4613 19.455 31.5392 19.392 31.0371 19.4798C29.2576 19.7906 27.4353 19.3703 25.6468 19.3703C24.8741 19.3703 24.256 18.779 23.5627 18.779" stroke="white" stroke-width="2" stroke-linecap="round"/>
<path d="M23.4933 18.6304C23.3825 19.423 22.7727 19.9891 22.619 20.7737" stroke="white" stroke-width="2" stroke-linecap="round"/>
</svg>
