<svg width="32" height="31" viewBox="0 0 32 31" fill="none" xmlns="http://www.w3.org/2000/svg">
<path d="M21.9126 0.129166H26.5325L15.4702 31H11.1046L0 0.129166H4.57748L13.3086 26.4361L21.9126 0.129166Z" fill="#313131"/>
<path d="M32 31H27.7616V6.02778H32V31Z" fill="#313131"/>
<path d="M27.7616 0H32V4.30556H27.7616V0Z" fill="#F45B0F"/>
<path d="M13.3534 13.9999C17.3608 13.9999 20.1325 10.7066 20.1325 9.67987C20.1325 8.64826 17.3557 5.36005 13.3534 5.36005C9.37609 5.36005 6.56954 8.64826 6.56954 9.67987C6.56954 10.7066 9.39619 13.9999 13.3534 13.9999ZM13.3534 12.5107C11.7925 12.5107 10.5619 11.225 10.5519 9.67987C10.5469 8.09444 11.7925 6.84952 13.3534 6.84952C14.9044 6.84952 16.15 8.09444 16.15 9.68012C16.15 11.2252 14.9044 12.5107 13.3534 12.5107ZM13.3534 10.7016C13.9088 10.7016 14.3692 10.2391 14.3692 9.68012C14.3692 9.11597 13.909 8.65368 13.3534 8.65368C12.7932 8.65368 12.3328 9.11621 12.3328 9.68012C12.3328 10.2393 12.793 10.7016 13.3534 10.7016Z" fill="#313131"/>
<path d="M14.7073 9.47222C14.7073 10.2331 14.1001 10.85 13.351 10.85C12.6019 10.85 11.9947 10.2331 11.9947 9.47222C11.9947 8.7113 12.6019 8.09444 13.351 8.09444C14.1001 8.09444 14.7073 8.7113 14.7073 9.47222Z" fill="#2592FF"/>
</svg>
