<svg width="209" height="17" viewBox="0 0 209 17" fill="none" xmlns="http://www.w3.org/2000/svg">
<path d="M10.062 9.256L0.756 12.874V10.93L7.74 8.356L0.756 5.782V3.874L10.062 7.456V9.256Z" fill="#F45B0F"/>
<path d="M22.5887 0.327999V13H20.3927V4.288H17.2607V2.776C19.4447 2.776 20.6687 1.96 20.9327 0.327999H22.5887ZM29.5307 10.57V13H27.0827V10.57H29.5307ZM39.4005 0.471999V2.254H34.3785L33.8025 5.494C34.3665 4.894 35.1585 4.594 36.1785 4.594C37.3425 4.594 38.2845 4.972 39.0045 5.728C39.7245 6.484 40.0845 7.48 40.0845 8.716C40.0845 10.048 39.6645 11.134 38.8245 11.974C37.9845 12.814 36.9045 13.234 35.5845 13.234C34.3365 13.234 33.3225 12.892 32.5425 12.208C31.7745 11.512 31.3665 10.582 31.3185 9.418H33.3525C33.4005 10.066 33.6345 10.582 34.0545 10.966C34.4745 11.35 35.0025 11.542 35.6385 11.542C36.3825 11.542 36.9585 11.308 37.3665 10.84C37.7745 10.36 37.9785 9.688 37.9785 8.824C37.9785 7.984 37.7685 7.336 37.3485 6.88C36.9285 6.412 36.3465 6.178 35.6025 6.178C34.7025 6.178 34.0005 6.556 33.4965 7.312L31.6965 7.258L32.9025 0.471999H39.4005ZM55.0962 3.712L51.6582 12.82C51.6222 12.904 51.5562 13.078 51.4602 13.342C51.3642 13.618 51.2982 13.804 51.2622 13.9C51.2262 13.996 51.1542 14.164 51.0462 14.404C50.9502 14.644 50.8722 14.812 50.8122 14.908C50.7522 15.004 50.6622 15.148 50.5422 15.34C50.4222 15.532 50.3082 15.67 50.2002 15.754C50.1042 15.838 49.9782 15.94 49.8222 16.06C49.6782 16.192 49.5282 16.282 49.3722 16.33C49.2162 16.39 49.0362 16.438 48.8322 16.474C48.6402 16.522 48.4302 16.546 48.2022 16.546C47.8182 16.546 47.3442 16.51 46.7802 16.438V14.71C47.2122 14.794 47.5722 14.836 47.8602 14.836C48.0042 14.836 48.1362 14.812 48.2562 14.764C48.3762 14.728 48.4842 14.656 48.5802 14.548C48.6762 14.452 48.7602 14.356 48.8322 14.26C48.9042 14.176 48.9702 14.05 49.0302 13.882C49.1022 13.726 49.1562 13.6 49.1922 13.504C49.2282 13.42 49.2762 13.282 49.3362 13.09C49.3962 12.898 49.4322 12.778 49.4442 12.73L45.8802 3.712H48.1302L50.6142 10.552L52.9542 3.712H55.0962ZM64.5562 10.102C64.3282 11.11 63.8302 11.896 63.0622 12.46C62.3062 13.024 61.4002 13.306 60.3442 13.306C58.9402 13.306 57.8242 12.856 56.9962 11.956C56.1802 11.044 55.7722 9.88 55.7722 8.464C55.7722 7.012 56.1922 5.812 57.0322 4.864C57.8842 3.916 58.9642 3.442 60.2722 3.442C61.6282 3.442 62.7022 3.91 63.4942 4.846C64.2862 5.77 64.6822 7.036 64.6822 8.644V8.86H57.8242C57.8482 9.796 58.0822 10.522 58.5262 11.038C58.9702 11.542 59.5882 11.794 60.3802 11.794C60.9442 11.794 61.4002 11.662 61.7482 11.398C62.1082 11.122 62.3902 10.69 62.5942 10.102H64.5562ZM62.6302 7.492C62.5702 6.712 62.3242 6.1 61.8922 5.656C61.4722 5.2 60.9262 4.972 60.2542 4.972C59.5822 4.972 59.0362 5.188 58.6162 5.62C58.2082 6.052 57.9562 6.676 57.8602 7.492H62.6302ZM66.1521 6.574C66.3681 4.474 67.7241 3.424 70.2201 3.424C71.3841 3.424 72.3081 3.652 72.9921 4.108C73.6881 4.564 74.0361 5.272 74.0361 6.232V10.948C74.0361 11.212 74.0661 11.392 74.1261 11.488C74.1981 11.584 74.3301 11.632 74.5221 11.632C74.6661 11.632 74.8221 11.62 74.9901 11.596V13.036C74.4621 13.168 74.0181 13.234 73.6581 13.234C72.7821 13.234 72.2781 12.862 72.1461 12.118C71.3661 12.862 70.2801 13.234 68.8881 13.234C67.9281 13.234 67.1661 12.988 66.6021 12.496C66.0381 11.992 65.7561 11.314 65.7561 10.462C65.7561 10.198 65.7861 9.952 65.8461 9.724C65.9061 9.496 65.9721 9.298 66.0441 9.13C66.1281 8.962 66.2541 8.806 66.4221 8.662C66.6021 8.518 66.7461 8.398 66.8541 8.302C66.9741 8.206 67.1601 8.116 67.4121 8.032C67.6761 7.948 67.8681 7.888 67.9881 7.852C68.1201 7.804 68.3421 7.756 68.6541 7.708C68.9661 7.66 69.1701 7.63 69.2661 7.618C69.3741 7.594 69.5901 7.564 69.9141 7.528C70.6461 7.432 71.1441 7.354 71.4081 7.294C71.6721 7.222 71.8521 7.12 71.9481 6.988C72.0321 6.892 72.0741 6.67 72.0741 6.322C72.0741 5.386 71.4381 4.918 70.1661 4.918C69.4941 4.918 69.0021 5.044 68.6901 5.296C68.3781 5.548 68.1801 5.974 68.0961 6.574H66.1521ZM72.0561 8.338C71.9001 8.422 71.7201 8.5 71.5161 8.572C71.3121 8.632 71.1441 8.674 71.0121 8.698C70.8921 8.71 70.6941 8.734 70.4181 8.77C70.1541 8.806 69.9801 8.83 69.8961 8.842C69.6441 8.878 69.4461 8.914 69.3021 8.95C69.1581 8.974 68.9781 9.022 68.7621 9.094C68.5581 9.166 68.3961 9.256 68.2761 9.364C68.1681 9.46 68.0721 9.598 67.9881 9.778C67.9041 9.946 67.8621 10.15 67.8621 10.39C67.8621 10.834 68.0061 11.176 68.2941 11.416C68.5941 11.656 69.0081 11.776 69.5361 11.776C70.4481 11.776 71.1501 11.53 71.6421 11.038C71.9181 10.762 72.0561 10.228 72.0561 9.436V8.338ZM81.5001 3.532V5.494C81.1401 5.458 80.9001 5.44 80.7801 5.44C78.9921 5.44 78.0981 6.598 78.0981 8.914V13H76.0641V3.712H77.9901V5.566C78.6501 4.186 79.6881 3.496 81.1041 3.496L81.5001 3.532ZM89.9342 6.412H87.9722C87.8522 5.428 87.1802 4.936 85.9562 4.936C85.4282 4.936 85.0202 5.032 84.7322 5.224C84.4442 5.416 84.3002 5.68 84.3002 6.016C84.3002 6.124 84.3062 6.22 84.3182 6.304C84.3422 6.388 84.3782 6.466 84.4262 6.538C84.4862 6.598 84.5342 6.652 84.5702 6.7C84.6182 6.748 84.6962 6.796 84.8042 6.844C84.9122 6.892 84.9962 6.934 85.0562 6.97C85.1282 6.994 85.2422 7.03 85.3982 7.078C85.5542 7.114 85.6742 7.144 85.7582 7.168C85.8542 7.192 86.0042 7.228 86.2082 7.276C86.4122 7.312 86.5682 7.342 86.6762 7.366C87.1442 7.474 87.4802 7.558 87.6842 7.618C87.9002 7.666 88.2062 7.774 88.6022 7.942C89.0102 8.098 89.3102 8.266 89.5022 8.446C89.6942 8.614 89.8682 8.854 90.0242 9.166C90.1922 9.466 90.2762 9.814 90.2762 10.21C90.2762 11.146 89.9102 11.89 89.1782 12.442C88.4462 12.994 87.4622 13.27 86.2262 13.27C84.9062 13.27 83.8922 12.994 83.1842 12.442C82.4762 11.89 82.0982 11.086 82.0502 10.03H84.0122C84.1202 11.194 84.8702 11.776 86.2622 11.776C86.8622 11.776 87.3422 11.656 87.7022 11.416C88.0742 11.164 88.2602 10.834 88.2602 10.426C88.2602 10.222 88.2122 10.048 88.1162 9.904C88.0322 9.76 87.8882 9.64 87.6842 9.544C87.4802 9.436 87.2822 9.358 87.0902 9.31C86.9102 9.25 86.6642 9.184 86.3522 9.112C86.2202 9.076 86.1182 9.052 86.0462 9.04C84.7262 8.716 83.8862 8.464 83.5262 8.284C82.6742 7.876 82.2482 7.198 82.2482 6.25C82.2482 5.374 82.5842 4.69 83.2562 4.198C83.9282 3.694 84.8582 3.442 86.0462 3.442C87.1862 3.442 88.1162 3.688 88.8362 4.18C89.5682 4.672 89.9342 5.416 89.9342 6.412ZM101.218 3.442C102.634 3.442 103.762 3.886 104.602 4.774C105.442 5.662 105.862 6.856 105.862 8.356C105.862 9.868 105.442 11.068 104.602 11.956C103.774 12.844 102.646 13.288 101.218 13.288C99.7659 13.288 98.6139 12.844 97.7619 11.956C96.9099 11.068 96.4839 9.868 96.4839 8.356C96.4839 6.856 96.9099 5.662 97.7619 4.774C98.6259 3.886 99.7779 3.442 101.218 3.442ZM103.09 5.944C102.634 5.356 101.998 5.062 101.182 5.062C100.366 5.062 99.7239 5.356 99.2559 5.944C98.7879 6.532 98.5539 7.336 98.5539 8.356C98.5539 9.4 98.7879 10.216 99.2559 10.804C99.7239 11.392 100.372 11.686 101.2 11.686C102.004 11.686 102.634 11.392 103.09 10.804C103.558 10.204 103.792 9.382 103.792 8.338C103.792 7.318 103.558 6.52 103.09 5.944ZM112.194 0.165999V1.75C111.798 1.714 111.498 1.696 111.294 1.696C110.874 1.696 110.592 1.774 110.448 1.93C110.304 2.074 110.232 2.368 110.232 2.812V3.712H111.996V5.206H110.25V13H108.216V5.206H106.686V3.712H108.216V2.974C108.216 2.002 108.426 1.282 108.846 0.813999C109.266 0.345999 109.974 0.112 110.97 0.112C111.378 0.112 111.786 0.129999 112.194 0.165999ZM126.589 10.102C126.361 11.11 125.863 11.896 125.095 12.46C124.339 13.024 123.433 13.306 122.377 13.306C120.973 13.306 119.857 12.856 119.029 11.956C118.213 11.044 117.805 9.88 117.805 8.464C117.805 7.012 118.225 5.812 119.065 4.864C119.917 3.916 120.997 3.442 122.305 3.442C123.661 3.442 124.735 3.91 125.527 4.846C126.319 5.77 126.715 7.036 126.715 8.644V8.86H119.857C119.881 9.796 120.115 10.522 120.559 11.038C121.003 11.542 121.621 11.794 122.413 11.794C122.977 11.794 123.433 11.662 123.781 11.398C124.141 11.122 124.423 10.69 124.627 10.102H126.589ZM124.663 7.492C124.603 6.712 124.357 6.1 123.925 5.656C123.505 5.2 122.959 4.972 122.287 4.972C121.615 4.972 121.069 5.188 120.649 5.62C120.241 6.052 119.989 6.676 119.893 7.492H124.663ZM130.759 8.122L127.537 3.712H130.021L131.965 6.574L133.999 3.712H136.375L133.225 8.014L136.771 13H134.305L131.947 9.58L129.661 13H127.249L130.759 8.122ZM139.905 3.712V4.954C140.529 3.946 141.537 3.442 142.929 3.442C144.213 3.442 145.239 3.892 146.007 4.792C146.775 5.692 147.159 6.892 147.159 8.392C147.159 9.856 146.781 11.032 146.025 11.92C145.281 12.796 144.285 13.234 143.037 13.234C141.717 13.234 140.709 12.748 140.013 11.776V16.438H137.979V3.712H139.905ZM142.515 5.098C141.711 5.098 141.081 5.386 140.625 5.962C140.169 6.538 139.941 7.336 139.941 8.356C139.941 9.364 140.169 10.156 140.625 10.732C141.093 11.308 141.735 11.596 142.551 11.596C143.331 11.596 143.949 11.308 144.405 10.732C144.861 10.156 145.089 9.376 145.089 8.392C145.089 7.384 144.855 6.586 144.387 5.998C143.931 5.398 143.307 5.098 142.515 5.098ZM157.263 10.102C157.035 11.11 156.537 11.896 155.769 12.46C155.013 13.024 154.107 13.306 153.051 13.306C151.647 13.306 150.531 12.856 149.703 11.956C148.887 11.044 148.479 9.88 148.479 8.464C148.479 7.012 148.899 5.812 149.739 4.864C150.591 3.916 151.671 3.442 152.979 3.442C154.335 3.442 155.409 3.91 156.201 4.846C156.993 5.77 157.389 7.036 157.389 8.644V8.86H150.531C150.555 9.796 150.789 10.522 151.233 11.038C151.677 11.542 152.295 11.794 153.087 11.794C153.651 11.794 154.107 11.662 154.455 11.398C154.815 11.122 155.097 10.69 155.301 10.102H157.263ZM155.337 7.492C155.277 6.712 155.031 6.1 154.599 5.656C154.179 5.2 153.633 4.972 152.961 4.972C152.289 4.972 151.743 5.188 151.323 5.62C150.915 6.052 150.663 6.676 150.567 7.492H155.337ZM164.205 3.532V5.494C163.845 5.458 163.605 5.44 163.485 5.44C161.697 5.44 160.803 6.598 160.803 8.914V13H158.769V3.712H160.695V5.566C161.355 4.186 162.393 3.496 163.809 3.496L164.205 3.532ZM167.383 0.129999V2.146H165.331V0.129999H167.383ZM167.383 3.712V13H165.331V3.712H167.383ZM177.935 10.102C177.707 11.11 177.209 11.896 176.441 12.46C175.685 13.024 174.779 13.306 173.723 13.306C172.319 13.306 171.203 12.856 170.375 11.956C169.559 11.044 169.151 9.88 169.151 8.464C169.151 7.012 169.571 5.812 170.411 4.864C171.263 3.916 172.343 3.442 173.651 3.442C175.007 3.442 176.081 3.91 176.873 4.846C177.665 5.77 178.061 7.036 178.061 8.644V8.86H171.203C171.227 9.796 171.461 10.522 171.905 11.038C172.349 11.542 172.967 11.794 173.759 11.794C174.323 11.794 174.779 11.662 175.127 11.398C175.487 11.122 175.769 10.69 175.973 10.102H177.935ZM176.009 7.492C175.949 6.712 175.703 6.1 175.271 5.656C174.851 5.2 174.305 4.972 173.633 4.972C172.961 4.972 172.415 5.188 171.995 5.62C171.587 6.052 171.335 6.676 171.239 7.492H176.009ZM181.583 3.712V5.08C182.327 4 183.353 3.46 184.661 3.46C185.717 3.46 186.503 3.748 187.019 4.324C187.547 4.9 187.811 5.728 187.811 6.808V13H185.759V7.6C185.759 7.228 185.741 6.922 185.705 6.682C185.669 6.43 185.591 6.178 185.471 5.926C185.363 5.674 185.183 5.488 184.931 5.368C184.679 5.236 184.355 5.17 183.959 5.17C182.447 5.17 181.691 6.112 181.691 7.996V13H179.639V3.712H181.583ZM198.381 9.49C198.237 10.63 197.781 11.542 197.013 12.226C196.245 12.898 195.279 13.234 194.115 13.234C192.723 13.234 191.613 12.796 190.785 11.92C189.957 11.032 189.543 9.874 189.543 8.446C189.543 6.91 189.957 5.692 190.785 4.792C191.625 3.88 192.753 3.424 194.169 3.424C195.357 3.424 196.311 3.724 197.031 4.324C197.763 4.924 198.189 5.758 198.309 6.826H196.275C196.155 6.238 195.915 5.788 195.555 5.476C195.195 5.164 194.739 5.008 194.187 5.008C193.395 5.008 192.771 5.308 192.315 5.908C191.859 6.496 191.631 7.306 191.631 8.338C191.631 9.37 191.847 10.174 192.279 10.75C192.723 11.326 193.335 11.614 194.115 11.614C194.727 11.614 195.225 11.434 195.609 11.074C196.005 10.702 196.257 10.174 196.365 9.49H198.381ZM208.275 10.102C208.047 11.11 207.549 11.896 206.781 12.46C206.025 13.024 205.119 13.306 204.063 13.306C202.659 13.306 201.543 12.856 200.715 11.956C199.899 11.044 199.491 9.88 199.491 8.464C199.491 7.012 199.911 5.812 200.751 4.864C201.603 3.916 202.683 3.442 203.991 3.442C205.347 3.442 206.421 3.91 207.213 4.846C208.005 5.77 208.401 7.036 208.401 8.644V8.86H201.543C201.567 9.796 201.801 10.522 202.245 11.038C202.689 11.542 203.307 11.794 204.099 11.794C204.663 11.794 205.119 11.662 205.467 11.398C205.827 11.122 206.109 10.69 206.313 10.102H208.275ZM206.349 7.492C206.289 6.712 206.043 6.1 205.611 5.656C205.191 5.2 204.645 4.972 203.973 4.972C203.301 4.972 202.755 5.188 202.335 5.62C201.927 6.052 201.675 6.676 201.579 7.492H206.349Z" fill="#313131"/>
</svg>
