<svg width="40" height="34" viewBox="0 0 40 34" fill="none" xmlns="http://www.w3.org/2000/svg">
<path d="M1.17418 9.05482C0.678791 5.5878 1.03381 1.89574 4.99798 1.05138C6.74931 0.678343 9.07365 2.42448 10.2446 3.45365C11.8724 4.88442 12.3797 6.70772 12.0612 8.78099C11.4692 12.6342 8.2037 14.6275 6.66216 17.942C5.42505 20.6019 5.80925 23.6849 5.51883 26.5305" stroke="white" stroke-width="2" stroke-linecap="round"/>
<path d="M4.83301 32.3765H5.06167" stroke="white" stroke-width="2" stroke-linecap="round"/>
<path d="M28.0228 9.67836C27.5274 6.21134 27.8824 2.51928 31.8466 1.67491C33.5979 1.30188 35.9223 3.04801 37.0932 4.07719C38.7211 5.50796 39.2284 7.33125 38.9098 9.40452C38.3178 13.2577 35.0523 15.251 33.5108 18.5655C32.2737 21.2255 32.6579 24.3084 32.3675 27.154" stroke="white" stroke-width="2" stroke-linecap="round"/>
<path d="M31.6816 33H31.9103" stroke="white" stroke-width="2" stroke-linecap="round"/>
<path d="M16.0361 16.9203C15.6945 14.5299 15.9393 11.9843 18.6725 11.4021C19.88 11.1449 21.4826 12.3488 22.2899 13.0584C23.4123 14.0449 23.7621 15.302 23.5425 16.7315C23.1343 19.3882 20.8828 20.7625 19.8199 23.0478C18.967 24.8818 19.2319 27.0074 19.0316 28.9694" stroke="white" stroke-width="2" stroke-linecap="round"/>
<path d="M18.5586 33H18.7171" stroke="white" stroke-width="2" stroke-linecap="round"/>
</svg>
