<svg width="18" height="16" viewBox="0 0 18 16" fill="none" xmlns="http://www.w3.org/2000/svg">
<path d="M16.1585 7.30754L16.6512 7.14286L16.4678 6.65685L15.4618 3.99019L15.2855 3.52283L14.818 3.69868L10.8538 5.18972L10.9251 1.00852L10.9337 0.5H10.4251H7.53293H7.02865L7.03295 1.00426L7.06865 5.19208L3.09818 3.69868L2.61746 3.51787L2.44961 4.00326L1.52746 6.66993L1.36324 7.1448L1.83892 7.30668L5.84428 8.66972L3.35826 12.0363L3.05823 12.4426L3.46754 12.7385L5.77293 14.4052L6.18404 14.7024L6.47526 14.287L8.9639 10.7376L11.5286 14.2925L11.8267 14.7057L12.2342 14.4L14.4557 12.7333L14.8527 12.4355L14.5579 12.0363L12.0742 8.67285L16.1585 7.30754Z" fill="white" stroke="white"/>
</svg>
