<svg width="193" height="86" viewBox="0 0 193 86" fill="none" xmlns="http://www.w3.org/2000/svg">
<path d="M137.963 8.43044C152.38 10.9722 166.831 13.2743 180.833 17.665C181.717 17.9419 191.903 20.36 191.903 23.5359C191.903 24.6747 191.929 26.14 191.291 27.1441C188.68 31.2525 181.211 32.1172 177.042 32.8928C160.623 35.947 143.264 35.8702 126.68 34.437C112.156 33.1818 97.1133 31.1885 83.0452 27.2359C79.0875 26.1239 75.1211 24.9094 71.2726 23.4595C68.4589 22.3994 65.4891 21.1683 63.2765 19.0563C59.9192 15.8516 63.8887 12.5777 67.0835 11.1213C74.2614 7.84902 83.1917 6.93871 90.8119 5.73959C109.115 2.85938 127.303 2.02457 145.806 1.71859C172.363 1.27943 154.274 1 180.833 1" stroke="#F45B0F" stroke-linecap="round"/>
<path d="M82.0382 54.4757C81.4677 54.9035 86.8261 55.6075 87.0425 55.6111C90.5844 55.6698 94.5016 55.9509 97.7661 54.3074C104.205 51.066 106.639 42.2577 106.639 35.5518" stroke="#F45B0F" stroke-linecap="round"/>
<path d="M1.05455 53C1.05455 54.8451 0.864486 56.7924 1.1939 58.6143C1.5313 60.4803 2.36856 62.2442 3.10682 63.9779C3.406 64.6804 3.89833 66.4727 4.38633 65.8827C6.58567 63.2236 6.19366 52.4753 6.80598 55.8573C7.08207 57.3821 7.53598 58.7084 8.12349 60.1431C8.29156 60.5536 9.7462 64.9329 10.3785 63.8526C11.268 62.3326 11.177 59.8981 11.4173 58.2132C11.6643 56.481 12 54.7544 12 53" stroke="#F45B0F" stroke-width="1.5" stroke-linecap="round"/>
<path d="M17.4178 51C17.2759 55.1707 16.3619 59.3754 15.4458 63.4204C15.1906 64.5473 14.8183 66.1795 14.4048 67.3328C13.7797 69.0758 14.0572 66.8728 14.0863 66.6994C14.4541 64.507 15.1252 62.1675 16.3767 60.3153C17.7495 58.2834 19.7595 62.0257 20.8227 62.9484C21.9017 63.8848 22.5195 64.4366 23.75 63.408C25.3443 62.0752 26.6667 60.4155 28 58.8248" stroke="#F45B0F" stroke-width="1.5" stroke-linecap="round"/>
<path d="M33 52C33 55.1323 33 58.2685 33 61.393C33 61.8353 33 65.3439 33 63.4361" stroke="#F45B0F" stroke-width="1.5" stroke-linecap="round"/>
<path d="M41.1428 50C41.1428 53.7708 40.7594 57.6958 41.2491 61.4391C41.7113 64.9717 48.3052 61.5482 50 60.5143" stroke="#F45B0F" stroke-width="1.5" stroke-linecap="round"/>
<path d="M39 57C39.8549 56.6485 40.7611 56.5671 41.6093 56.2121C42.1248 55.9964 42.5851 55.2051 43.0771 55.1061C44.0918 54.9018 44.9534 54 46 54" stroke="#F45B0F" stroke-width="1.5" stroke-linecap="round"/>
<path d="M54 54.8674C55.6063 54.5453 57.0567 53.1456 58.3446 52.248C59.505 51.4393 60.275 50.7196 60.8664 49.4605C61.8196 47.4312 60.2101 46 58.1698 46C56.7109 46 56.9606 47.0952 56.9338 48.307C56.868 51.286 56.8481 54.2922 56.9463 57.2705C57.056 60.597 57.8459 63.1828 61.8777 62.9899C65.7084 62.8065 71.3275 61.6183 74 58.7604" stroke="#F45B0F" stroke-width="1.5" stroke-linecap="round"/>
<path d="M33.0235 75.8734C33.0235 77.8824 33.0235 79.8914 33.0235 81.9004C33.0235 82.8718 32.9706 83.8736 33.0235 84.8455C33.0644 85.5978 33.4309 83.3973 33.573 82.6584C34.1453 79.6815 34.6244 76.7342 36.2369 74.1213C36.6366 73.4736 38.4535 71.1858 38.9127 72.9904C39.3261 74.6148 39.0223 76.5219 39.0441 78.1848C39.0472 78.4129 39.1716 77.7479 39.2233 77.5262C39.5854 75.9754 40.3378 74.6463 41.2661 73.3881C41.882 72.5532 42.8782 71.0808 44.0375 71.0021C45.2555 70.9195 45.7749 73.2432 46.0443 74.084C46.6179 75.8741 47 77.785 47 79.676" stroke="#F45B0F" stroke-width="1.5" stroke-linecap="round"/>
<path d="M52.8071 78.7C54.5409 78.5312 56.928 76.2867 57.7739 74.9252C58.391 73.932 58.3669 72.4879 57.9893 71.4218C57.5269 70.1162 55.1736 68.6423 53.7194 69.078C52.5186 69.4376 52.4137 72.8166 52.3003 73.7163C52.0045 76.0628 51.5992 79.0258 52.9084 81.1672C54.2909 83.4285 58.3029 83.0418 60.5108 82.8449C63.4809 82.5801 66.7485 82.025 69 80.0323" stroke="#F45B0F" stroke-width="1.5" stroke-linecap="round"/>
<path d="M106.623 36.0953C106.43 35.8058 104.286 37.5796 104.021 37.7962C103.533 38.1964 103.07 38.6251 102.621 39.0682C102.509 39.1779 102.222 39.4672 102.506 39.1826" stroke="#F45B0F" stroke-linecap="round"/>
<path d="M107.009 35.8384C107.177 36.8464 108.711 37.4321 109.41 37.9966C110.111 38.5635 110.697 39.3871 111.254 40.0833" stroke="#F45B0F" stroke-linecap="round"/>
<path d="M33 47.9218C33 47.9218 33 48.398 33 47" stroke="#F45B0F" stroke-width="1.5" stroke-linecap="round"/>
</svg>
