<svg width="224" height="99" viewBox="0 0 224 99" fill="none" xmlns="http://www.w3.org/2000/svg">
<path d="M169.196 8.43044C183.613 10.9722 198.064 13.2743 212.066 17.665C212.95 17.9419 223.135 20.36 223.135 23.5359C223.135 24.6747 223.162 26.14 222.524 27.1441C219.913 31.2525 212.444 32.1172 208.275 32.8928C191.856 35.947 174.497 35.8702 157.913 34.437C143.389 33.1818 128.346 31.1885 114.278 27.2359C110.32 26.1239 106.354 24.9094 102.506 23.4595C99.6919 22.3994 96.7221 21.1683 94.5094 19.0563C91.1521 15.8516 95.1216 12.5777 98.3164 11.1213C105.494 7.84902 114.425 6.93871 122.045 5.73959C140.348 2.85938 158.536 2.02457 177.039 1.71859C203.595 1.27943 185.507 1 212.066 1" stroke="#F45B0F" stroke-linecap="round"/>
<path d="M96.271 53.9239C95.7005 54.3518 101.059 55.0557 101.275 55.0593C104.817 55.118 108.734 55.3992 111.999 53.7557C118.437 50.5143 120.872 41.7059 120.872 35" stroke="#F45B0F" stroke-linecap="round"/>
<path d="M2.15971 60.4482C1.95178 64.5027 1.33535 76.6318 1.08211 72.5799C0.962054 70.6591 0.901287 68.3986 1.42972 66.5315C1.92233 64.7909 5.44938 66.0269 6.60914 66.1838C7.65979 66.326 9.56998 66.7607 10.5719 66.1143C11.6671 65.4078 11.224 62.9268 11.3888 61.8387C12.0418 57.529 10.8473 70.9407 12.7966 74.8394" stroke="#F45B0F" stroke-width="2" stroke-linecap="round"/>
<path d="M20.9871 61.7407C20.533 62.907 16.5604 73.9903 18.2584 74.2026C20.5979 74.495 24.2795 71.4687 25.6277 69.8574C27.0777 68.1246 27.2932 66.0197 27.2268 63.8611C27.1481 61.305 24.6132 59.74 22.0995 60.7674C19.2953 61.9134 17.2329 66.3561 17.2329 69.2491" stroke="#F45B0F" stroke-width="2" stroke-linecap="round"/>
<path d="M26.2329 65.4482C27.3262 67.5254 27.1084 70.6882 27.4669 72.974C27.7647 74.8721 28.2425 75.8446 29.3614 77.3366" stroke="#F45B0F" stroke-width="2" stroke-linecap="round"/>
<path d="M31.2329 62.7882C31.2329 65.4246 31.2388 68.0396 31.5631 70.6616C31.668 71.5093 32.1513 75.5915 32.1715 72.278C32.1873 69.6769 32.1715 67.0752 32.1715 64.4741C32.1715 63.3488 32.0683 62.4592 33.2838 61.9887C34.705 61.4385 36.3152 61.1976 37.7854 60.772C38.8133 60.4745 39.6004 60.0117 39.6799 61.363C39.9361 65.718 41.2441 70.0217 41.2441 74.3637" stroke="#F45B0F" stroke-width="2" stroke-linecap="round"/>
<path d="M45.2329 60.699C45.4564 65.393 47.0485 69.25 48.9871 73.4563C49.1525 73.8152 49.7681 76.1497 49.9952 74.9858C50.4642 72.5822 51.312 70.2757 51.8723 67.8946C52.3505 65.862 52.7413 63.8002 52.7413 61.7071C52.7413 61.3131 52.6641 60.1389 52.7413 60.5252C53.3125 63.3808 53.797 66.2677 54.2361 69.146C54.4726 70.6968 54.495 71.902 55.2441 73.213" stroke="#F45B0F" stroke-width="2" stroke-linecap="round"/>
<path d="M59.6822 60.2539C58.9578 63.2423 59.066 67.9532 60.3253 70.7866C61.2943 72.9669 67.7607 71.8294 69.6587 71.8294C70.1538 71.8294 73.5176 72.2458 73.8648 71.6208C74.3883 70.6785 73.506 67.738 73.4651 66.6326C73.4014 64.9153 73.1348 63.2218 73.1348 61.5053" stroke="#F45B0F" stroke-width="2" stroke-linecap="round"/>
<path d="M67.8584 60.8799C68.8935 63.9853 67.8426 67.6837 68.4841 70.8911" stroke="#F45B0F" stroke-width="2" stroke-linecap="round"/>
<path d="M82.8753 60.8799C82.7518 63.4751 81.6719 66.9631 82.632 69.4833C83.0026 70.4562 84.4573 70.8738 85.326 71.1344C87.2008 71.6969 87.4603 71.182 87.9505 69.3964C88.4818 67.4609 88.8453 65.4812 89.0628 63.487C89.1258 62.9097 89.2122 61.2445 89.4278 61.7837C89.8703 62.8897 89.4452 65.3994 89.4452 66.4938C89.4452 68.6296 89.4771 70.6609 89.7581 72.7682" stroke="#F45B0F" stroke-width="2" stroke-linecap="round"/>
<path d="M97.8921 62.7568C97.8921 66.1888 97.0266 70.3871 98.8306 73.3938" stroke="#F45B0F" stroke-width="2" stroke-linecap="round"/>
<path d="M94.7637 60.8799C98.4252 60.9816 102.058 61.59 105.713 61.8184" stroke="#F45B0F" stroke-width="2" stroke-linecap="round"/>
<path d="M109.155 70.8903C111.832 70.6469 114.137 69.3876 115.638 67.1361C116.147 66.3719 117.386 64.5812 116.733 63.5731C115.923 62.3246 113.545 62.1539 112.231 62.2348C108.263 62.4789 108.599 67.8915 109.05 70.6817C109.813 75.4032 114.092 76.3907 117.914 74.9574" stroke="#F45B0F" stroke-width="2" stroke-linecap="round"/>
<path d="M53.4674 84.0304C52.7848 86.4321 52.1888 88.8402 51.7293 91.2955C51.4427 92.8265 51.2287 95.3602 51.2948 91.956C51.3443 89.4055 51.2648 86.7207 51.7467 84.2042C52.0767 82.481 54.1163 85.9706 54.2321 86.1508C54.7092 86.8934 56.2853 90.9661 57.4301 90.9826C59.1819 91.008 60.1375 86.1013 60.6282 84.969C61.635 82.6455 62.3538 87.3294 62.4184 87.6108C63.171 90.8884 63.9132 94.0323 65.0428 97.1701" stroke="#F45B0F" stroke-width="2" stroke-linecap="round"/>
<path d="M67.5457 85.9072C67.3612 88.6934 67.0245 91.9348 68.38 94.528C68.8164 95.3629 68.7198 92.156 68.7276 91.9557C68.79 90.3638 70.3535 90.5739 71.5433 90.3567C73.2918 90.0374 73.4113 88.5673 74.1156 87.1586" stroke="#F45B0F" stroke-width="2" stroke-linecap="round"/>
<path d="M74.7412 82.7793C74.7412 87.5967 77.2607 90.7282 79.1211 94.9805" stroke="#F45B0F" stroke-width="2" stroke-linecap="round"/>
<path d="M84.4396 89.9748C85.6889 89.6277 87.7989 88.677 87.881 87.1591C87.9761 85.3991 85.3002 83.1979 83.7965 84.6389C80.8877 87.4265 81.3416 92.4119 84.7003 94.5111C87.0899 96.0046 92.0464 97.7334 94.138 95.2932" stroke="#F45B0F" stroke-width="2" stroke-linecap="round"/>
<path d="M120.856 35.5436C120.662 35.254 118.519 37.0278 118.254 37.2444C117.766 37.6447 117.303 38.0733 116.854 38.5165C116.742 38.6261 116.455 38.9154 116.739 38.6308" stroke="#F45B0F" stroke-linecap="round"/>
<path d="M121.242 35.2871C121.41 36.2951 122.944 36.8809 123.643 37.4453C124.345 38.0122 124.93 38.8358 125.487 39.5321" stroke="#F45B0F" stroke-linecap="round"/>
</svg>
